# Blender v3.2.1 OBJ File: 'poly_export.blend'
# www.blender.org
mtllib 3_cubes.mtl
o Cube_Cube.005
v -100.000000 -100.000000 100.000000
v -100.000000 100.000000 100.000000
v -100.000000 -100.000000 -100.000000
v -100.000000 100.000000 -100.000000
v 100.000000 -100.000000 100.000000
v 100.000000 100.000000 100.000000
v 100.000000 -100.000000 -100.000000
v 100.000000 100.000000 -100.000000
v 104.582855 137.895798 60.181217
v 104.582855 337.895813 60.181217
v 104.582855 137.895798 -139.818787
v 104.582855 337.895813 -139.818787
v 304.582855 137.895798 60.181217
v 304.582855 337.895813 60.181217
v 304.582855 137.895798 -139.818787
v 304.582855 337.895813 -139.818787
v -306.257843 170.795746 172.668793
v -306.257843 370.795746 172.668793
v -306.257843 170.795746 -27.331215
v -306.257843 370.795746 -27.331215
v -106.257843 170.795746 172.668793
v -106.257843 370.795746 172.668793
v -106.257843 170.795746 -27.331215
v -106.257843 370.795746 -27.331215
vt 0.625000 0.000000
vt 0.375000 0.250000
vt 0.375000 0.000000
vt 0.625000 0.250000
vt 0.375000 0.500000
vt 0.625000 0.500000
vt 0.375000 0.750000
vt 0.625000 0.750000
vt 0.375000 1.000000
vt 0.125000 0.750000
vt 0.125000 0.500000
vt 0.875000 0.500000
vt 0.625000 1.000000
vt 0.875000 0.750000
vt 0.625000 0.000000
vt 0.375000 0.250000
vt 0.375000 0.000000
vt 0.625000 0.250000
vt 0.375000 0.500000
vt 0.625000 0.500000
vt 0.375000 0.750000
vt 0.625000 0.750000
vt 0.375000 1.000000
vt 0.125000 0.750000
vt 0.125000 0.500000
vt 0.875000 0.500000
vt 0.625000 1.000000
vt 0.875000 0.750000
vt 0.625000 0.000000
vt 0.375000 0.250000
vt 0.375000 0.000000
vt 0.625000 0.250000
vt 0.375000 0.500000
vt 0.625000 0.500000
vt 0.375000 0.750000
vt 0.625000 0.750000
vt 0.375000 1.000000
vt 0.125000 0.750000
vt 0.125000 0.500000
vt 0.875000 0.500000
vt 0.625000 1.000000
vt 0.875000 0.750000
vn -1.0000 0.0000 0.0000
vn 0.0000 0.0000 -1.0000
vn 1.0000 0.0000 0.0000
vn 0.0000 0.0000 1.0000
vn 0.0000 -1.0000 0.0000
vn 0.0000 1.0000 0.0000
usemtl None
s off
f 2/1/1 3/2/1 1/3/1
f 4/4/2 7/5/2 3/2/2
f 8/6/3 5/7/3 7/5/3
f 6/8/4 1/9/4 5/7/4
f 7/5/5 1/10/5 3/11/5
f 4/12/6 6/8/6 8/6/6
f 2/1/1 4/4/1 3/2/1
f 4/4/2 8/6/2 7/5/2
f 8/6/3 6/8/3 5/7/3
f 6/8/4 2/13/4 1/9/4
f 7/5/5 5/7/5 1/10/5
f 4/12/6 2/14/6 6/8/6
f 10/15/1 11/16/1 9/17/1
f 12/18/2 15/19/2 11/16/2
f 16/20/3 13/21/3 15/19/3
f 14/22/4 9/23/4 13/21/4
f 15/19/5 9/24/5 11/25/5
f 12/26/6 14/22/6 16/20/6
f 10/15/1 12/18/1 11/16/1
f 12/18/2 16/20/2 15/19/2
f 16/20/3 14/22/3 13/21/3
f 14/22/4 10/27/4 9/23/4
f 15/19/5 13/21/5 9/24/5
f 12/26/6 10/28/6 14/22/6
f 18/29/1 19/30/1 17/31/1
f 20/32/2 23/33/2 19/30/2
f 24/34/3 21/35/3 23/33/3
f 22/36/4 17/37/4 21/35/4
f 23/33/5 17/38/5 19/39/5
f 20/40/6 22/36/6 24/34/6
f 18/29/1 20/32/1 19/30/1
f 20/32/2 24/34/2 23/33/2
f 24/34/3 22/36/3 21/35/3
f 22/36/4 18/41/4 17/37/4
f 23/33/5 21/35/5 17/38/5
f 20/40/6 18/42/6 22/36/6
