# Blender v3.2.1 OBJ File: ''
# www.blender.org
mtllib Barrack_001.mtl
o Barrack
v -406.541138 233.503922 419.444702
v 425.348602 233.503967 419.614044
v 9.313154 390.708649 419.529327
v -391.103302 236.377914 9.239160
v -391.021790 236.377914 -391.182068
v -391.021790 -0.000017 -391.182068
v -391.103302 -0.000017 9.239160
v 396.219452 0.000017 396.379700
v 396.379700 0.000017 -391.021790
v 396.379700 236.377960 -391.021790
v 396.219421 236.377960 396.379700
v -391.181946 -0.000017 395.668274
v -391.182068 236.377914 396.219452
v -153.935226 -0.000007 -391.133820
v 162.285233 236.377945 -391.069427
v 161.300995 198.385834 -391.069641
v -153.738373 198.385803 -391.133759
v -153.935226 236.377945 -391.133820
v 162.285233 0.000007 -391.069427
v -427.411163 -42.637810 438.731812
v 430.856506 -42.637772 438.906525
v 431.031189 -42.637772 -419.361145
v -153.338913 -42.637798 -419.480103
v -427.236511 -42.637810 -419.535858
v 160.007538 -42.637787 -419.416321
v -153.541504 -41.968506 -391.133728
v 160.356110 -41.968494 -391.069824
v -485.985077 126.692886 8.774966
v -486.063354 127.362160 393.286774
v -371.260223 236.338531 393.310120
v -371.181976 235.708633 8.798331
v -485.197662 -39.228363 8.775126
v -485.275940 -38.570885 393.286926
v -371.260223 -38.570877 393.310120
v -371.181946 -39.228359 8.798331
v -406.371429 233.503922 -414.413544
v 425.518341 233.503967 -414.244202
v 9.482873 390.708649 -414.328918
v -291.408203 -43.503948 -426.988556
v -291.415405 -43.503948 -391.555481
v -291.415436 61.299198 -391.555481
v -291.408203 60.984238 -426.988556
v -291.415649 107.047226 -390.492493
v -232.360306 -43.503944 -391.543457
v -232.353104 -43.503944 -426.976532
v -232.353104 60.984230 -426.976532
v -232.360336 61.299198 -391.543457
v -232.360550 107.047226 -390.480469
v -559.613159 -40.905537 38.275723
v -559.625366 -40.905537 98.232407
v -559.625366 61.771626 98.232407
v -559.613159 61.771626 38.275723
v -485.215881 99.409424 98.247551
v -485.203674 99.409424 38.290871
v -508.837921 -40.905533 98.242752
v -508.838013 25.484228 98.242752
v -485.215881 34.846432 98.247551
v -508.825714 -40.905533 38.286064
v -508.825806 25.484228 38.286064
v -485.203674 34.846432 38.290871
v -559.667603 -40.905537 305.634003
v -559.679749 -40.905537 365.555237
v -559.679749 61.771626 365.555237
v -559.667603 61.771626 305.634003
v -485.270325 99.409424 365.570374
v -485.258118 99.409424 305.649139
v -508.892303 -40.905533 365.565582
v -508.892395 25.484228 365.565582
v -485.270294 34.846432 365.570374
v -508.880157 -40.905533 305.644318
v -508.880249 25.484228 305.644318
v -485.258118 34.846432 305.649139
v -559.640564 -40.905537 172.720612
v -559.652771 -40.905537 232.681229
v -559.652771 61.771626 232.681229
v -559.640564 61.771626 172.720612
v -485.243286 99.409424 232.696365
v -485.231079 99.409424 172.735764
v -508.865295 -40.905533 232.691559
v -508.865387 25.484228 232.691559
v -485.243286 34.846432 232.696365
v -508.853088 -40.905533 172.730942
v -508.853180 25.484228 172.730942
v -485.231079 34.846432 172.735764
v 294.726288 -43.503922 -391.436188
v 294.733490 -43.503922 -426.869263
v 294.726257 61.299221 -391.436188
v 294.733490 60.984261 -426.869263
v 294.726044 107.047249 -390.373169
v 235.678375 -43.503925 -426.881287
v 235.671173 -43.503925 -391.448212
v 235.678360 60.984257 -426.881287
v 235.671158 61.299221 -391.448212
v 235.670929 107.047249 -390.385223
v 434.792938 245.000015 441.663147
v 434.804810 245.000015 383.395447
v 8.324759 403.149597 381.851990
v 8.312923 403.149597 440.001526
v 421.013458 232.244095 441.660339
v 421.025330 232.244095 383.392609
v 8.226336 382.322845 381.851929
v 8.214499 382.322845 440.001526
v -414.800903 244.999954 380.348511
v -414.812805 244.999954 438.734344
v -401.415070 232.244049 380.351227
v -401.426941 232.244049 438.737091
v 434.960175 245.000015 -379.950989
v 434.972046 245.000015 -438.258026
v 8.491938 403.149597 -439.525940
v 8.480126 403.149597 -381.494446
v 421.180695 232.244095 -379.953796
v 421.192566 232.244095 -438.260864
v 8.393514 382.322845 -439.526001
v 8.381702 382.322845 -381.494446
v -414.633728 244.999954 -441.186890
v -414.645538 244.999954 -382.997894
v -401.247864 232.244049 -441.184113
v -401.259705 232.244049 -382.995209
vt -0.719800 0.022740
vt 1.735000 0.022720
vt 0.500000 0.829700
vt 0.971700 1.007000
vt -0.002767 1.007000
vt -0.002767 0.166000
vt 0.971700 0.166000
vt 1.047000 0.265300
vt -1.002000 0.265300
vt -1.002000 1.022000
vt 1.047000 1.022000
vt 2.017000 0.265300
vt -0.032150 0.265300
vt -0.032150 1.022000
vt 2.017000 1.022000
vt 0.911800 0.153200
vt 1.539000 0.153200
vt 1.539000 0.999500
vt 0.075250 0.999500
vt -0.544100 0.153200
vt 0.075250 0.862500
vt -0.544100 0.999500
vt 0.911800 0.862500
vt 0.911800 0.999500
vt 0.075250 0.153200
vt -0.514100 -0.538900
vt 1.478000 -0.538900
vt -0.514100 1.544000
vt 1.478000 1.544000
vt 1.544000 0.153200
vt -0.538900 0.153200
vt -0.635200 0.000500
vt 1.635000 0.000500
vt 1.514000 0.153200
vt -0.478300 0.153200
vt -0.585900 0.000500
vt 1.586000 0.000500
vt 0.910200 0.000500
vt 1.635000 0.000500
vt -0.635200 0.000500
vt 0.081280 0.000500
vt 1.539000 0.153200
vt 1.539000 0.153200
vt 1.539000 0.153200
vt 1.539000 0.153200
vt 1.539000 0.153200
vt 1.539000 0.153200
vt 1.276000 0.168400
vt 0.249600 0.168400
vt 0.212600 -0.004153
vt 1.334000 -0.004153
vt 0.171500 0.316000
vt 0.841300 0.316000
vt 0.841300 0.587900
vt 0.171500 0.587900
vt -0.232600 -0.010720
vt 1.217000 -0.008240
vt 1.217000 0.618600
vt -0.232600 0.616100
vt 0.148000 -0.008240
vt 0.562500 -0.008240
vt 0.562500 1.030000
vt 0.145200 0.618600
vt -0.216700 -0.008240
vt 1.233000 -0.010720
vt 1.233000 1.028000
vt -0.216700 1.030000
vt 0.437500 -0.010720
vt 0.852000 -0.010720
vt 0.854800 0.616100
vt 0.437500 1.028000
vt 0.843000 0.663900
vt 0.843000 -0.013880
vt 0.016380 -0.013880
vt 0.016380 0.663900
vt 0.183400 0.001660
vt 0.823500 0.005547
vt 0.823500 0.585300
vt 0.187300 0.585300
vt 0.823500 0.005547
vt 0.183400 0.001660
vt 1.128000 -0.030690
vt -0.103600 -0.047440
vt 0.510800 0.463000
vt 0.083750 0.015260
vt 0.916300 0.015260
vt 0.916300 0.960800
vt 0.083750 0.960800
vt 0.603320 0.604350
vt 0.867440 0.604350
vt 0.867440 1.031810
vt 0.603320 1.030490
vt 0.876680 1.218370
vt 0.612560 0.604350
vt 0.876680 0.604350
vt 0.876680 1.030490
vt 0.612560 1.031810
vt 0.603320 1.218370
vt 0.566240 0.604350
vt 0.913760 0.604350
vt 0.913760 1.030490
vt 0.566240 1.030490
vt 0.603320 1.139280
vt 0.603320 0.820720
vt 0.876680 0.820720
vt 0.876680 1.139280
vt 0.627440 0.459964
vt 0.809480 0.459964
vt 0.809480 0.864390
vt 0.627440 0.864390
vt 0.809480 1.080760
vt 0.627440 1.080760
vt 0.613880 0.459964
vt 0.775040 0.459964
vt 0.775040 0.721390
vt 0.613880 0.864390
vt 0.849920 0.758350
vt 0.849920 1.012560
vt 0.670520 0.459964
vt 0.852560 0.459964
vt 0.852560 0.721390
vt 0.670520 0.721390
vt 0.670520 1.012120
vt 0.852560 1.012120
vt 0.852560 1.080760
vt 0.670520 1.080760
vt 0.704960 0.459964
vt 0.866120 0.459964
vt 0.866120 0.864390
vt 0.704960 0.721390
vt 0.630080 1.012560
vt 0.630080 0.758350
vt 0.627440 0.459964
vt 0.809480 0.459964
vt 0.809480 0.864390
vt 0.627440 0.864390
vt 0.809480 1.080760
vt 0.627440 1.080760
vt 0.613880 0.459964
vt 0.775040 0.459964
vt 0.775040 0.721390
vt 0.613880 0.864390
vt 0.849920 0.758350
vt 0.849920 1.012560
vt 0.670520 0.459964
vt 0.852560 0.459964
vt 0.852560 0.721390
vt 0.670520 0.721390
vt 0.670520 1.012120
vt 0.852560 1.012120
vt 0.852560 1.080760
vt 0.670520 1.080760
vt 0.704960 0.459964
vt 0.866120 0.459964
vt 0.866120 0.864390
vt 0.704960 0.721390
vt 0.630080 1.012560
vt 0.630080 0.758350
vt 0.627440 0.459964
vt 0.809480 0.459964
vt 0.809480 0.864390
vt 0.627440 0.864390
vt 0.809480 1.080760
vt 0.627440 1.080760
vt 0.613880 0.459964
vt 0.775040 0.459964
vt 0.775040 0.721390
vt 0.613880 0.864390
vt 0.849920 0.758350
vt 0.849920 1.012560
vt 0.670520 0.459964
vt 0.852560 0.459964
vt 0.852560 0.721390
vt 0.670520 0.721390
vt 0.670520 1.012120
vt 0.852560 1.012120
vt 0.852560 1.080760
vt 0.670520 1.080760
vt 0.704960 0.459964
vt 0.866120 0.459964
vt 0.866120 0.864390
vt 0.704960 0.721390
vt 0.630080 1.012560
vt 0.630080 0.758350
vt 0.867440 0.604350
vt 0.603320 0.604350
vt 0.867440 1.031810
vt 0.603320 1.030490
vt 0.876680 1.218370
vt 0.876680 0.604350
vt 0.612560 0.604350
vt 0.876680 1.030490
vt 0.612560 1.031810
vt 0.603320 1.218370
vt 0.913760 0.604350
vt 0.566240 0.604350
vt 0.913760 1.030490
vt 0.566240 1.030490
vt 0.603320 0.820720
vt 0.603320 1.139280
vt 0.876680 0.820720
vt 0.876680 1.139280
vt 0.069950 0.065800
vt 0.889700 0.065800
vt 0.909900 0.999500
vt 0.090100 0.999500
vt 0.069950 -0.009580
vt 0.889700 -0.009580
vt -0.009580 1.272000
vt 0.877200 0.496900
vt 0.999500 0.497100
vt 0.065800 1.298000
vt 0.122800 0.496900
vt 1.010000 1.272000
vt 0.934200 1.298000
vt 0.000500 0.497100
vt 0.069950 0.065800
vt 0.889700 0.065800
vt 0.909900 0.999500
vt 0.090100 0.999500
vt 0.069950 -0.009582
vt 0.889700 -0.009582
vt 1.010000 -0.272100
vt 0.934200 -0.297600
vt -0.009582 -0.272100
vt 0.065800 -0.297600
vt 0.069950 0.065800
vt 0.889700 0.065800
vt 0.909900 0.999500
vt 0.090100 0.999500
vt 0.069950 -0.009580
vt 0.889700 -0.009580
vt -0.009580 1.272000
vt 0.877200 0.496900
vt 0.999500 0.497100
vt 0.065800 1.298000
vt 0.122800 0.496900
vt 1.010000 1.272000
vt 0.934200 1.298000
vt 0.000500 0.497100
vt 0.069950 0.065800
vt 0.889700 0.065800
vt 0.909900 0.999500
vt 0.090100 0.999500
vt 0.069950 -0.009582
vt 0.889700 -0.009582
vt 1.010000 -0.272100
vt 0.934200 -0.297600
vt -0.009582 -0.272100
vt 0.065800 -0.297600
vn -0.8286 -0.1514 0.5389
vn 0.8284 -0.1513 0.5393
vn -0.0002 0.7721 0.6355
vn -1.0000 0.0000 -0.0002
vn -0.7070 -0.0000 -0.7073
vn -0.5062 0.6646 -0.5496
vn 0.5213 0.7039 0.4825
vn 0.5136 0.6600 -0.5483
vn 0.7073 0.0000 -0.7070
vn 0.7068 -0.0003 0.7075
vn -0.2978 0.7905 0.5353
vn -0.0002 -0.0023 1.0000
vn 0.1911 0.2868 -0.9387
vn 0.0002 0.0000 -1.0000
vn -0.1879 0.2960 -0.9365
vn -0.2978 0.7904 0.5353
vn -0.4191 0.7963 0.4362
vn 0.4242 0.7886 0.4452
vn 0.4992 0.7231 -0.4775
vn 0.5247 0.4764 -0.7055
vn -0.4947 0.7318 -0.4687
vn -0.5281 0.4895 -0.6939
vn 0.7147 0.0067 -0.6994
vn -0.7147 0.0329 -0.6986
vn -0.7158 0.3051 -0.6281
vn -0.7162 0.3059 0.6273
vn 0.3300 0.7693 0.5471
vn 0.3304 0.7684 -0.5481
vn -0.7055 -0.0033 -0.7087
vn -0.7066 -0.0034 0.7076
vn 0.7073 0.0000 0.7069
vn 0.7069 0.0000 -0.7073
vn -0.8284 -0.1514 -0.5393
vn 0.8286 -0.1513 -0.5389
vn 0.0001 0.7721 -0.6355
vn -0.7148 0.0329 -0.6986
vn -0.6399 0.2526 -0.7257
vn -0.3806 0.5742 -0.7248
vn 1.0000 0.0000 0.0002
vn 0.6402 0.2526 -0.7255
vn 0.3809 0.5742 -0.7247
vn -0.7073 -0.0000 0.7070
vn -0.6777 0.4166 0.6059
vn -0.6775 0.4166 -0.6062
vn -0.3696 0.7304 0.5744
vn -0.3693 0.7304 -0.5746
vn 0.7070 0.0000 0.7073
vn 0.4251 -0.2889 0.8578
vn 0.2311 -0.5835 0.7785
vn 0.4255 -0.2889 -0.8576
vn 0.2314 -0.5835 -0.7784
vn 0.8141 0.1619 0.5578
vn 0.8156 0.1615 -0.5556
vn 0.0007 0.7714 -0.6364
vn -0.0027 0.7715 0.6363
vn 0.4122 -0.4454 0.7948
vn 0.4151 -0.4481 -0.7917
vn 0.0036 0.0000 -1.0000
vn -0.0035 0.0000 1.0000
vn -0.8127 0.1666 -0.5583
vn -0.8141 0.1663 0.5564
vn -0.4209 -0.4419 -0.7922
vn -0.4235 -0.4442 0.7896
vn 0.8141 0.1619 0.5577
vn 0.8155 0.1615 -0.5557
vn 0.0007 0.7715 -0.6363
vn -0.0027 0.7714 0.6364
vn 0.4123 -0.4455 0.7947
vn 0.4149 -0.4479 -0.7920
vn 0.0035 0.0000 -1.0000
vn -0.0036 0.0000 1.0000
vn -0.8127 0.1667 -0.5584
vn -0.8142 0.1662 0.5562
vn -0.4208 -0.4417 -0.7924
vn -0.4237 -0.4444 0.7893
g Barrack_Barrack_MetaDoorWindows
usemtl MetaDoorWindows
s 1
f 1/1/1 2/2/2 3/3/3
f 4/4/4 5/5/5 6/6/6
f 6/6/6 7/7/4 4/4/4
f 8/8/7 9/9/8 10/10/9
f 10/10/9 11/11/10 8/8/7
f 12/12/11 8/13/7 11/14/10
f 11/14/10 13/15/12 12/12/11
g Barrack_Barrack_Metal128x128
usemtl Metal128x128
f 14/16/13 6/17/6 5/18/5
f 15/19/14 9/20/8 16/21/14
f 9/20/8 15/19/14 10/22/9
f 17/23/14 18/24/14 16/21/14
f 5/18/5 17/23/14 14/16/13
f 16/21/14 9/20/8 19/25/15
f 16/21/14 18/24/14 15/19/14
f 5/18/5 18/24/14 17/23/14
f 6/26/6 12/27/16 9/28/8
f 8/29/7 9/28/8 12/27/16
f 8/30/7 12/31/16 20/32/17
f 20/32/17 21/33/18 8/30/7
f 9/34/8 8/35/7 21/36/18
f 21/36/18 22/37/19 9/34/8
f 6/17/6 14/16/13 23/38/20
f 23/38/20 24/39/21 6/17/6
f 19/25/15 9/20/8 22/40/19
f 22/40/19 25/41/22 19/25/15
f 23/42/20 14/43/13 26/44/23
f 27/45/24 19/46/15 25/47/22
f 12/48/16 6/49/6 24/50/21
f 24/50/21 20/51/17 12/48/16
f 28/52/25 29/53/26 30/54/27
f 30/54/27 31/55/28 28/52/25
f 32/56/29 33/57/30 29/58/26
f 29/58/26 28/59/25 32/56/29
f 33/60/30 34/61/31 30/62/27
f 30/62/27 29/63/26 33/60/30
f 34/64/31 35/65/32 31/66/28
f 31/66/28 30/67/27 34/64/31
f 35/68/32 32/69/29 28/70/25
f 28/70/25 31/71/28 35/68/32
f 36/72/33 37/73/34 2/74/2
f 2/74/2 1/75/1 36/72/33
f 2/76/2 37/77/34 38/78/35
f 38/78/35 3/79/3 2/76/2
f 36/80/33 1/81/1 38/78/35
f 3/79/3 38/78/35 1/81/1
f 37/82/34 36/83/33 38/84/35
g Barrack_Barrack_metal07_door2
usemtl metal07_door2
f 27/85/36 26/86/23 17/87/14
f 27/85/36 17/87/14 16/88/14
g Barrack_Barrack_warn_stripe_128
usemtl warn_stripe_128
f 39/89/5 40/90/4 41/91/4
f 41/91/4 42/92/37 39/89/5
f 42/92/37 41/91/4 43/93/38
f 44/94/39 45/95/9 46/96/40
f 46/96/40 47/97/39 44/94/39
f 47/97/39 46/96/40 48/98/41
f 45/99/9 39/100/5 42/101/37
f 42/101/37 46/102/40 45/99/9
f 46/103/40 42/104/37 43/105/38
f 43/105/38 48/106/41 46/103/40
f 49/107/5 50/108/42 51/109/43
f 51/109/43 52/110/44 49/107/5
f 52/110/44 51/109/43 53/111/45
f 53/111/45 54/112/46 52/110/44
f 50/113/42 55/114/47 56/115/48
f 56/115/48 51/116/43 50/113/42
f 51/116/43 56/115/48 57/117/49
f 57/117/49 53/118/45 51/116/43
f 55/119/47 58/120/9 59/121/50
f 59/121/50 56/122/48 55/119/47
f 56/123/48 59/124/50 60/125/51
f 60/125/51 57/126/49 56/123/48
f 58/127/9 49/128/5 52/129/44
f 52/129/44 59/130/50 58/127/9
f 59/130/50 52/129/44 54/131/46
f 54/131/46 60/132/51 59/130/50
f 61/133/5 62/134/42 63/135/43
f 63/135/43 64/136/44 61/133/5
f 64/136/44 63/135/43 65/137/45
f 65/137/45 66/138/46 64/136/44
f 62/139/42 67/140/47 68/141/48
f 68/141/48 63/142/43 62/139/42
f 63/142/43 68/141/48 69/143/49
f 69/143/49 65/144/45 63/142/43
f 67/145/47 70/146/9 71/147/50
f 71/147/50 68/148/48 67/145/47
f 68/149/48 71/150/50 72/151/51
f 72/151/51 69/152/49 68/149/48
f 70/153/9 61/154/5 64/155/44
f 64/155/44 71/156/50 70/153/9
f 71/156/50 64/155/44 66/157/46
f 66/157/46 72/158/51 71/156/50
f 73/159/5 74/160/42 75/161/43
f 75/161/43 76/162/44 73/159/5
f 76/162/44 75/161/43 77/163/45
f 77/163/45 78/164/46 76/162/44
f 74/165/42 79/166/47 80/167/48
f 80/167/48 75/168/43 74/165/42
f 75/168/43 80/167/48 81/169/49
f 81/169/49 77/170/45 75/168/43
f 79/171/47 82/172/9 83/173/50
f 83/173/50 80/174/48 79/171/47
f 80/175/48 83/176/50 84/177/51
f 84/177/51 81/178/49 80/175/48
f 82/179/9 73/180/5 76/181/44
f 76/181/44 83/182/50 82/179/9
f 83/182/50 76/181/44 78/183/46
f 78/183/46 84/184/51 83/182/50
f 85/185/39 86/186/9 87/187/39
f 88/188/40 87/187/39 86/186/9
f 87/187/39 88/188/40 89/189/41
f 90/190/5 91/191/4 92/192/37
f 93/193/4 92/192/37 91/191/4
f 92/192/37 93/193/4 94/194/38
f 86/195/9 90/196/5 88/197/40
f 92/198/37 88/197/40 90/196/5
f 88/199/40 92/200/37 89/201/41
f 94/202/38 89/201/41 92/200/37
g Barrack_Barrack_Eaves
usemtl Eaves
f 95/203/52 96/204/53 97/205/54
f 97/205/54 98/206/55 95/203/52
f 99/207/56 100/208/57 96/204/53
f 96/204/53 95/203/52 99/207/56
f 100/209/57 101/210/58 97/211/54
f 97/211/54 96/212/53 100/209/57
f 102/213/59 99/214/56 95/215/52
f 95/215/52 98/216/55 102/213/59
f 103/217/60 104/218/61 98/219/55
f 98/219/55 97/220/54 103/217/60
f 105/221/62 106/222/63 104/218/61
f 104/218/61 103/217/60 105/221/62
f 106/223/63 102/213/59 98/216/55
f 98/216/55 104/224/61 106/223/63
f 101/210/58 105/225/62 103/226/60
f 103/226/60 97/211/54 101/210/58
f 107/227/64 108/228/65 109/229/66
f 109/229/66 110/230/67 107/227/64
f 111/231/68 112/232/69 108/228/65
f 108/228/65 107/227/64 111/231/68
f 112/233/69 113/234/70 109/235/66
f 109/235/66 108/236/65 112/233/69
f 114/237/71 111/238/68 107/239/64
f 107/239/64 110/240/67 114/237/71
f 115/241/72 116/242/73 110/243/67
f 110/243/67 109/244/66 115/241/72
f 117/245/74 118/246/75 116/242/73
f 116/242/73 115/241/72 117/245/74
f 118/247/75 114/237/71 110/240/67
f 110/240/67 116/248/73 118/247/75
f 113/234/70 117/249/74 115/250/72
f 115/250/72 109/235/66 113/234/70
